<mxfile host="app.diagrams.net" modified="2020-09-01T11:45:34.977Z" agent="5.0 (Windows NT 10.0; Win64; x64) AppleWebKit/537.36 (KHTML, like Gecko) Chrome/85.0.4183.83 Safari/537.36" etag="fXqaSTMexQ_ciuz5ENpG" version="13.6.6" type="github">
  <diagram id="Nmf9uk_Kw5WzBHFfFQCZ" name="Page-1">
    <mxGraphModel dx="1102" dy="614" grid="1" gridSize="10" guides="1" tooltips="1" connect="1" arrows="1" fold="1" page="1" pageScale="1" pageWidth="850" pageHeight="1100" math="0" shadow="0">
      <root>
        <mxCell id="0" />
        <mxCell id="1" parent="0" />
        <mxCell id="przEip2t-UuoiSnYNImb-32" style="edgeStyle=orthogonalEdgeStyle;rounded=0;orthogonalLoop=1;jettySize=auto;html=1;exitX=1;exitY=0.5;exitDx=0;exitDy=0;" edge="1" parent="1" source="przEip2t-UuoiSnYNImb-33">
          <mxGeometry relative="1" as="geometry">
            <mxPoint x="290" y="59.75862068965512" as="targetPoint" />
          </mxGeometry>
        </mxCell>
        <mxCell id="przEip2t-UuoiSnYNImb-33" value="" style="shape=ext;rounded=1;html=1;whiteSpace=wrap;fillColor=#d5e8d4;strokeColor=#82b366;" vertex="1" parent="1">
          <mxGeometry x="60" y="20" width="120" height="80" as="geometry" />
        </mxCell>
        <mxCell id="przEip2t-UuoiSnYNImb-34" value="&lt;font style=&quot;font-size: 14px&quot;&gt;Recipient A&lt;br&gt;(Looking for a &lt;br&gt;donor)&lt;br&gt;&lt;/font&gt;" style="text;html=1;resizable=0;autosize=1;align=center;verticalAlign=middle;points=[];fillColor=none;strokeColor=none;rounded=0;" vertex="1" parent="1">
          <mxGeometry x="70" y="25" width="100" height="50" as="geometry" />
        </mxCell>
        <mxCell id="przEip2t-UuoiSnYNImb-35" value="" style="edgeStyle=orthogonalEdgeStyle;rounded=0;orthogonalLoop=1;jettySize=auto;html=1;" edge="1" parent="1" source="przEip2t-UuoiSnYNImb-37" target="przEip2t-UuoiSnYNImb-41">
          <mxGeometry relative="1" as="geometry" />
        </mxCell>
        <mxCell id="przEip2t-UuoiSnYNImb-36" style="edgeStyle=orthogonalEdgeStyle;rounded=0;orthogonalLoop=1;jettySize=auto;html=1;entryX=0.5;entryY=0;entryDx=0;entryDy=0;" edge="1" parent="1" source="przEip2t-UuoiSnYNImb-37" target="przEip2t-UuoiSnYNImb-46">
          <mxGeometry relative="1" as="geometry" />
        </mxCell>
        <mxCell id="przEip2t-UuoiSnYNImb-37" value="Is Registered?" style="rhombus;whiteSpace=wrap;html=1;fillColor=#fff2cc;strokeColor=#d6b656;" vertex="1" parent="1">
          <mxGeometry x="280" y="10" width="100" height="100" as="geometry" />
        </mxCell>
        <mxCell id="przEip2t-UuoiSnYNImb-38" style="edgeStyle=orthogonalEdgeStyle;rounded=0;orthogonalLoop=1;jettySize=auto;html=1;" edge="1" parent="1" source="przEip2t-UuoiSnYNImb-39" target="przEip2t-UuoiSnYNImb-44">
          <mxGeometry relative="1" as="geometry" />
        </mxCell>
        <mxCell id="przEip2t-UuoiSnYNImb-39" value="More Information:&lt;br&gt;Age, Weight, Health, diabetes, Blood pressure, etc..&amp;nbsp;" style="whiteSpace=wrap;html=1;fillColor=#e1d5e7;strokeColor=#9673a6;" vertex="1" parent="1">
          <mxGeometry x="270" y="260" width="120" height="60" as="geometry" />
        </mxCell>
        <mxCell id="przEip2t-UuoiSnYNImb-40" style="edgeStyle=orthogonalEdgeStyle;rounded=0;orthogonalLoop=1;jettySize=auto;html=1;" edge="1" parent="1" source="przEip2t-UuoiSnYNImb-41" target="przEip2t-UuoiSnYNImb-48">
          <mxGeometry relative="1" as="geometry">
            <mxPoint x="660" y="59.999999999999886" as="targetPoint" />
          </mxGeometry>
        </mxCell>
        <mxCell id="przEip2t-UuoiSnYNImb-41" value="Show Statistics&amp;nbsp;&lt;br&gt;Expected waiting time, How many Donors are out there&amp;nbsp;" style="whiteSpace=wrap;html=1;fillColor=#dae8fc;strokeColor=#6c8ebf;" vertex="1" parent="1">
          <mxGeometry x="450" y="30" width="120" height="60" as="geometry" />
        </mxCell>
        <mxCell id="przEip2t-UuoiSnYNImb-42" style="edgeStyle=orthogonalEdgeStyle;rounded=0;orthogonalLoop=1;jettySize=auto;html=1;entryX=0;entryY=0.5;entryDx=0;entryDy=0;" edge="1" parent="1" source="przEip2t-UuoiSnYNImb-44" target="przEip2t-UuoiSnYNImb-41">
          <mxGeometry relative="1" as="geometry" />
        </mxCell>
        <mxCell id="przEip2t-UuoiSnYNImb-43" style="edgeStyle=orthogonalEdgeStyle;rounded=0;orthogonalLoop=1;jettySize=auto;html=1;" edge="1" parent="1" source="przEip2t-UuoiSnYNImb-44" target="przEip2t-UuoiSnYNImb-52">
          <mxGeometry relative="1" as="geometry" />
        </mxCell>
        <mxCell id="przEip2t-UuoiSnYNImb-44" value="Select a Doctor" style="whiteSpace=wrap;html=1;fillColor=#e1d5e7;strokeColor=#9673a6;" vertex="1" parent="1">
          <mxGeometry x="270" y="380" width="120" height="60" as="geometry" />
        </mxCell>
        <mxCell id="przEip2t-UuoiSnYNImb-45" style="edgeStyle=orthogonalEdgeStyle;rounded=0;orthogonalLoop=1;jettySize=auto;html=1;" edge="1" parent="1" source="przEip2t-UuoiSnYNImb-46" target="przEip2t-UuoiSnYNImb-39">
          <mxGeometry relative="1" as="geometry" />
        </mxCell>
        <mxCell id="przEip2t-UuoiSnYNImb-46" value="Basic Information" style="whiteSpace=wrap;html=1;fillColor=#e1d5e7;strokeColor=#9673a6;" vertex="1" parent="1">
          <mxGeometry x="270" y="145" width="120" height="60" as="geometry" />
        </mxCell>
        <mxCell id="przEip2t-UuoiSnYNImb-47" style="edgeStyle=orthogonalEdgeStyle;rounded=0;orthogonalLoop=1;jettySize=auto;html=1;" edge="1" parent="1" source="przEip2t-UuoiSnYNImb-48" target="przEip2t-UuoiSnYNImb-51">
          <mxGeometry relative="1" as="geometry">
            <Array as="points">
              <mxPoint x="665" y="620" />
            </Array>
          </mxGeometry>
        </mxCell>
        <mxCell id="przEip2t-UuoiSnYNImb-48" value="&lt;font style=&quot;font-size: 11px&quot;&gt;Find a Donor&amp;nbsp;&lt;/font&gt;" style="rhombus;whiteSpace=wrap;html=1;fillColor=#fff2cc;strokeColor=#d6b656;" vertex="1" parent="1">
          <mxGeometry x="620" y="240" width="90" height="90" as="geometry" />
        </mxCell>
        <mxCell id="przEip2t-UuoiSnYNImb-49" style="edgeStyle=orthogonalEdgeStyle;rounded=0;orthogonalLoop=1;jettySize=auto;html=1;exitX=0.5;exitY=1;exitDx=0;exitDy=0;entryX=0.5;entryY=0;entryDx=0;entryDy=0;" edge="1" parent="1" source="przEip2t-UuoiSnYNImb-52" target="przEip2t-UuoiSnYNImb-51">
          <mxGeometry relative="1" as="geometry">
            <mxPoint x="330" y="585" as="sourcePoint" />
            <Array as="points">
              <mxPoint x="330" y="620" />
              <mxPoint x="520" y="620" />
            </Array>
          </mxGeometry>
        </mxCell>
        <mxCell id="przEip2t-UuoiSnYNImb-50" style="edgeStyle=orthogonalEdgeStyle;rounded=0;orthogonalLoop=1;jettySize=auto;html=1;" edge="1" parent="1" source="przEip2t-UuoiSnYNImb-51" target="przEip2t-UuoiSnYNImb-55">
          <mxGeometry relative="1" as="geometry" />
        </mxCell>
        <mxCell id="przEip2t-UuoiSnYNImb-51" value="Donor Information and Lab Results&amp;nbsp;" style="shape=ext;rounded=1;html=1;whiteSpace=wrap;arcSize=0;fillColor=#dae8fc;strokeColor=#6c8ebf;" vertex="1" parent="1">
          <mxGeometry x="460" y="790" width="120" height="80" as="geometry" />
        </mxCell>
        <mxCell id="przEip2t-UuoiSnYNImb-52" value="&lt;font style=&quot;font-size: 11px&quot;&gt;Have a Donor&amp;nbsp;&lt;/font&gt;" style="rhombus;whiteSpace=wrap;html=1;fillColor=#fff2cc;strokeColor=#d6b656;" vertex="1" parent="1">
          <mxGeometry x="285" y="500" width="90" height="90" as="geometry" />
        </mxCell>
        <mxCell id="przEip2t-UuoiSnYNImb-53" style="edgeStyle=orthogonalEdgeStyle;rounded=0;orthogonalLoop=1;jettySize=auto;html=1;" edge="1" parent="1" source="przEip2t-UuoiSnYNImb-54" target="przEip2t-UuoiSnYNImb-58">
          <mxGeometry relative="1" as="geometry" />
        </mxCell>
        <mxCell id="przEip2t-UuoiSnYNImb-54" value="Recipient B&amp;nbsp;&lt;br&gt;(have a donor )" style="shape=ext;rounded=1;html=1;whiteSpace=wrap;fillColor=#d5e8d4;strokeColor=#82b366;" vertex="1" parent="1">
          <mxGeometry x="70" y="790" width="120" height="80" as="geometry" />
        </mxCell>
        <mxCell id="przEip2t-UuoiSnYNImb-55" value="Organ info&amp;nbsp;&lt;br&gt;Success Rate&amp;nbsp;&lt;br&gt;Stats and etc..&lt;br&gt;Doctor opinion.." style="whiteSpace=wrap;html=1;fillColor=#dae8fc;strokeColor=#6c8ebf;" vertex="1" parent="1">
          <mxGeometry x="710" y="790" width="120" height="80" as="geometry" />
        </mxCell>
        <mxCell id="przEip2t-UuoiSnYNImb-56" style="edgeStyle=orthogonalEdgeStyle;rounded=0;orthogonalLoop=1;jettySize=auto;html=1;" edge="1" parent="1" source="przEip2t-UuoiSnYNImb-58" target="przEip2t-UuoiSnYNImb-64">
          <mxGeometry relative="1" as="geometry" />
        </mxCell>
        <mxCell id="przEip2t-UuoiSnYNImb-57" style="edgeStyle=orthogonalEdgeStyle;rounded=0;orthogonalLoop=1;jettySize=auto;html=1;" edge="1" parent="1" source="przEip2t-UuoiSnYNImb-58" target="przEip2t-UuoiSnYNImb-51">
          <mxGeometry relative="1" as="geometry" />
        </mxCell>
        <mxCell id="przEip2t-UuoiSnYNImb-58" value="Is Registered?" style="rhombus;whiteSpace=wrap;html=1;fillColor=#fff2cc;strokeColor=#d6b656;" vertex="1" parent="1">
          <mxGeometry x="270" y="780" width="100" height="100" as="geometry" />
        </mxCell>
        <mxCell id="przEip2t-UuoiSnYNImb-59" style="edgeStyle=orthogonalEdgeStyle;rounded=0;orthogonalLoop=1;jettySize=auto;html=1;" edge="1" parent="1" source="przEip2t-UuoiSnYNImb-60" target="przEip2t-UuoiSnYNImb-62">
          <mxGeometry relative="1" as="geometry" />
        </mxCell>
        <mxCell id="przEip2t-UuoiSnYNImb-60" value="More Information:&lt;br&gt;Age, Weight, Health, diabetes, Blood pressure, etc..&amp;nbsp;" style="whiteSpace=wrap;html=1;fillColor=#e1d5e7;strokeColor=#9673a6;" vertex="1" parent="1">
          <mxGeometry x="260" y="1030" width="120" height="60" as="geometry" />
        </mxCell>
        <mxCell id="przEip2t-UuoiSnYNImb-61" style="edgeStyle=orthogonalEdgeStyle;rounded=0;orthogonalLoop=1;jettySize=auto;html=1;entryX=0;entryY=0.5;entryDx=0;entryDy=0;" edge="1" parent="1" source="przEip2t-UuoiSnYNImb-62" target="przEip2t-UuoiSnYNImb-51">
          <mxGeometry relative="1" as="geometry" />
        </mxCell>
        <mxCell id="przEip2t-UuoiSnYNImb-62" value="Select a Doctor" style="whiteSpace=wrap;html=1;fillColor=#e1d5e7;strokeColor=#9673a6;" vertex="1" parent="1">
          <mxGeometry x="260" y="1150" width="120" height="60" as="geometry" />
        </mxCell>
        <mxCell id="przEip2t-UuoiSnYNImb-63" style="edgeStyle=orthogonalEdgeStyle;rounded=0;orthogonalLoop=1;jettySize=auto;html=1;" edge="1" parent="1" source="przEip2t-UuoiSnYNImb-64" target="przEip2t-UuoiSnYNImb-60">
          <mxGeometry relative="1" as="geometry" />
        </mxCell>
        <mxCell id="przEip2t-UuoiSnYNImb-64" value="Basic Information" style="whiteSpace=wrap;html=1;fillColor=#e1d5e7;strokeColor=#9673a6;" vertex="1" parent="1">
          <mxGeometry x="260" y="915" width="120" height="55" as="geometry" />
        </mxCell>
      </root>
    </mxGraphModel>
  </diagram>
</mxfile>
